<?xml version="1.0" encoding="utf-8"?>
<!-- Generator: Adobe Illustrator 19.2.0, SVG Export Plug-In . SVG Version: 6.00 Build 0)  -->
<svg version="1.1" id="Layer_1" xmlns="http://www.w3.org/2000/svg" xmlns:xlink="http://www.w3.org/1999/xlink" x="0px" y="0px"
	 viewBox="0 0 341 63.7" style="enable-background:new 0 0 341 63.7;" xml:space="preserve">
<style type="text/css">
	.st0{fill:#231F20;}
	.st1{fill:#808285;}
	.st2{fill:#462B72;}
	.st3{fill:#8DAD3E;}
	.st4{fill:#117B99;}
	.st5{fill:#C11F46;}
	.st6{fill:#FABA13;}
</style>
<g>
	<g>
		<path class="st0" d="M77.7,36.3c-0.2,0-0.4,0.1-0.7,0.2c-0.3,0.1-0.6,0.1-0.9,0.2c-0.3,0.1-0.6,0.1-1,0.1c-0.3,0-0.6,0.1-0.9,0.1
			c-1.1,0-2.1-0.2-2.8-0.5c-0.8-0.3-1.4-0.9-1.9-1.7c-0.5-0.8-0.9-2-1.1-3.5c-0.2-1.5-0.4-3.3-0.4-5.6c0-2.3,0.1-4.1,0.4-5.5
			c0.3-1.4,0.7-2.5,1.2-3.2c0.5-0.8,1.2-1.3,2-1.5c0.8-0.3,1.8-0.4,2.9-0.4c0.5,0,1,0,1.6,0.1c0.6,0.1,1.1,0.2,1.5,0.3v2.3
			c-0.5-0.1-1.1-0.2-1.7-0.3c-0.6-0.1-1.3-0.1-1.9-0.1c-0.6,0-1,0.1-1.5,0.3c-0.4,0.2-0.8,0.6-1,1.2c-0.3,0.6-0.5,1.5-0.6,2.6
			c-0.1,1.1-0.2,2.6-0.2,4.5c0,1.9,0.1,3.5,0.2,4.6c0.1,1.2,0.4,2,0.6,2.7c0.3,0.6,0.6,1,1,1.2c0.4,0.2,0.9,0.3,1.4,0.3
			c0.6,0,1.3-0.1,2-0.2c0.7-0.1,1.2-0.2,1.6-0.3V36.3z"/>
		<path class="st0" d="M91.9,28.6c0,1.6-0.1,3-0.4,4c-0.2,1.1-0.6,1.9-1.1,2.5c-0.5,0.6-1.1,1.1-1.8,1.3c-0.7,0.2-1.6,0.4-2.5,0.4
			c-0.9,0-1.8-0.1-2.5-0.4c-0.7-0.2-1.3-0.7-1.8-1.3c-0.5-0.6-0.9-1.5-1.1-2.5c-0.3-1.1-0.4-2.4-0.4-4c0-2.6,0.5-4.5,1.4-5.8
			c0.9-1.2,2.4-1.8,4.4-1.8c2,0,3.5,0.6,4.4,1.8C91.5,24,91.9,25.9,91.9,28.6z M89.3,29c0-1.1-0.1-2-0.2-2.8
			c-0.1-0.8-0.3-1.4-0.5-1.8c-0.2-0.5-0.6-0.8-1-1c-0.4-0.2-0.9-0.3-1.5-0.3c-0.6,0-1.1,0.1-1.5,0.3c-0.4,0.2-0.7,0.5-1,1
			c-0.2,0.5-0.4,1.1-0.5,1.8C83,27,82.9,27.9,82.9,29c0,2,0.2,3.4,0.7,4.3c0.5,0.9,1.3,1.3,2.5,1.3c1.2,0,2-0.4,2.5-1.3
			C89,32.5,89.3,31,89.3,29z"/>
		<path class="st0" d="M95.5,36.6V21.2h2.2l0.2,1.4c1-1.1,2.3-1.6,3.8-1.6c0.9,0,1.6,0.1,2.2,0.3c0.6,0.2,1.1,0.5,1.4,1
			c0.4,0.4,0.6,1,0.8,1.7c0.2,0.7,0.2,1.5,0.2,2.4v10.2h-2.6V26.1c0-1-0.2-1.7-0.5-2.2c-0.3-0.5-1-0.7-2-0.7c-0.4,0-0.8,0.1-1.2,0.2
			c-0.4,0.2-0.7,0.4-1,0.6s-0.5,0.5-0.6,0.8c-0.2,0.3-0.2,0.6-0.2,0.9v10.8H95.5z"/>
		<path class="st0" d="M113.6,23.5v9.4c0,0.1,0,0.3,0.1,0.5c0,0.2,0.1,0.4,0.2,0.6c0.1,0.2,0.3,0.3,0.5,0.4c0.2,0.1,0.5,0.2,0.8,0.2
			c0.5,0,0.9,0,1.2-0.1c0.3-0.1,0.6-0.1,0.8-0.2v2.2c-0.2,0.1-0.6,0.1-1.1,0.2c-0.5,0.1-1,0.1-1.6,0.1c-0.6,0-1.1-0.1-1.6-0.3
			c-0.5-0.2-0.8-0.5-1.1-0.9c-0.3-0.4-0.5-0.8-0.6-1.3c-0.1-0.5-0.2-1-0.2-1.6v-9.2h-2v-2.3h2v-3.7h2.6v3.7h3.6v2.3H113.6z"/>
		<path class="st0" d="M122.1,29.8c0,1,0.1,1.8,0.2,2.4c0.1,0.6,0.3,1.1,0.5,1.5c0.2,0.3,0.5,0.6,0.8,0.7c0.3,0.1,0.7,0.2,1,0.2
			c0.9,0,1.6-0.1,2.4-0.2c0.7-0.1,1.3-0.2,1.8-0.3v2.2c-0.5,0.1-1.1,0.3-1.9,0.4c-0.7,0.1-1.4,0.1-2,0.1c-0.9,0-1.7-0.1-2.4-0.3
			c-0.7-0.2-1.3-0.6-1.7-1.1c-0.5-0.6-0.8-1.3-1.1-2.4c-0.2-1-0.4-2.4-0.4-4.1c0-1.4,0.1-2.6,0.4-3.6c0.2-1,0.6-1.8,1.1-2.5
			c0.5-0.6,1.1-1.1,1.8-1.4c0.7-0.3,1.5-0.4,2.4-0.4c1.8,0,3,0.6,3.8,1.7c0.8,1.2,1.2,2.8,1.2,4.8v2.3H122.1z M125,23.2
			c-0.5,0-0.9,0.1-1.3,0.2c-0.3,0.1-0.6,0.4-0.9,0.7c-0.2,0.3-0.4,0.8-0.5,1.4c-0.1,0.6-0.2,1.3-0.2,2.2h5.4v-0.8
			c0-1.2-0.2-2.1-0.5-2.7C126.5,23.5,125.9,23.2,125,23.2z"/>
		<path class="st0" d="M133.5,36.6V21.2h2.2l0.2,1.4c1-1.1,2.3-1.6,3.8-1.6c0.9,0,1.6,0.1,2.2,0.3c0.6,0.2,1.1,0.5,1.4,1
			c0.4,0.4,0.6,1,0.8,1.7c0.2,0.7,0.2,1.5,0.2,2.4v10.2h-2.6V26.1c0-1-0.2-1.7-0.5-2.2c-0.3-0.5-1-0.7-2-0.7c-0.4,0-0.8,0.1-1.2,0.2
			c-0.4,0.2-0.7,0.4-1,0.6c-0.3,0.3-0.5,0.5-0.6,0.8c-0.2,0.3-0.2,0.6-0.2,0.9v10.8H133.5z"/>
		<path class="st0" d="M151.5,23.5v9.4c0,0.1,0,0.3,0.1,0.5c0,0.2,0.1,0.4,0.2,0.6c0.1,0.2,0.3,0.3,0.5,0.4c0.2,0.1,0.5,0.2,0.8,0.2
			c0.5,0,0.9,0,1.2-0.1c0.3-0.1,0.6-0.1,0.8-0.2v2.2c-0.2,0.1-0.6,0.1-1.1,0.2c-0.5,0.1-1,0.1-1.6,0.1c-0.6,0-1.1-0.1-1.6-0.3
			c-0.5-0.2-0.8-0.5-1.1-0.9c-0.3-0.4-0.5-0.8-0.6-1.3c-0.1-0.5-0.2-1-0.2-1.6v-9.2h-2v-2.3h2v-3.7h2.6v3.7h3.6v2.3H151.5z"/>
		<path class="st0" d="M174.5,30.4c0,1.3-0.1,2.3-0.4,3.1c-0.3,0.8-0.7,1.5-1.2,1.9c-0.5,0.5-1.2,0.8-1.9,1
			c-0.7,0.2-1.6,0.3-2.5,0.3c-0.5,0-1.1,0-1.8-0.1c-0.7-0.1-1.3-0.2-1.8-0.3v-2.2c0.5,0.1,1,0.2,1.7,0.3c0.6,0.1,1.4,0.1,2.2,0.1
			c1.1,0,1.8-0.3,2.3-0.9c0.5-0.6,0.7-1.6,0.7-2.9c0-0.7-0.1-1.4-0.2-1.9c-0.1-0.5-0.3-0.9-0.5-1.2c-0.2-0.3-0.5-0.6-0.8-0.7
			c-0.3-0.2-0.7-0.3-1.1-0.4c-0.9-0.2-1.6-0.4-2.2-0.7c-0.6-0.3-1.1-0.7-1.4-1.1c-0.4-0.5-0.6-1-0.8-1.7c-0.2-0.7-0.3-1.4-0.3-2.3
			c0-1.1,0.1-2,0.4-2.8c0.3-0.7,0.7-1.4,1.3-1.8c0.5-0.5,1.2-0.8,1.9-1c0.7-0.2,1.5-0.3,2.4-0.3c0.5,0,1.1,0,1.7,0.1
			c0.6,0.1,1.1,0.2,1.6,0.3v2.2c-0.5-0.1-1.1-0.2-1.8-0.3c-0.7-0.1-1.3-0.1-1.8-0.1c-0.4,0-0.8,0.1-1.1,0.2c-0.4,0.1-0.7,0.3-1,0.6
			c-0.3,0.3-0.5,0.6-0.7,1c-0.2,0.4-0.3,0.9-0.3,1.6c0,0.6,0,1.1,0.1,1.6c0.1,0.4,0.2,0.8,0.4,1c0.2,0.3,0.4,0.5,0.7,0.6
			c0.3,0.2,0.7,0.3,1.2,0.4c0.7,0.1,1.4,0.3,2,0.6c0.6,0.3,1.1,0.6,1.5,1.1c0.4,0.5,0.7,1.1,1,1.9C174.3,28.4,174.5,29.3,174.5,30.4
			z"/>
		<path class="st0" d="M180.4,23.5v9.4c0,0.1,0,0.3,0.1,0.5c0,0.2,0.1,0.4,0.2,0.6c0.1,0.2,0.3,0.3,0.5,0.4c0.2,0.1,0.5,0.2,0.8,0.2
			c0.5,0,0.9,0,1.2-0.1c0.3-0.1,0.6-0.1,0.8-0.2v2.2c-0.2,0.1-0.6,0.1-1.1,0.2c-0.5,0.1-1,0.1-1.6,0.1c-0.6,0-1.2-0.1-1.6-0.3
			c-0.5-0.2-0.8-0.5-1.1-0.9c-0.3-0.4-0.5-0.8-0.6-1.3c-0.1-0.5-0.2-1-0.2-1.6v-9.2h-2v-2.3h2v-3.7h2.6v3.7h3.6v2.3H180.4z"/>
		<path class="st0" d="M186.8,36.6V21.2h2.2l0.2,1.6c0.3-0.5,0.8-1,1.3-1.3c0.5-0.3,1.1-0.5,1.9-0.5c0.4,0,0.7,0,1,0
			c0.3,0,0.5,0.1,0.7,0.1v2.7c-0.3-0.1-0.6-0.1-0.9-0.2c-0.3-0.1-0.7-0.1-0.9-0.1c-0.5,0-0.9,0.1-1.3,0.3c-0.3,0.2-0.6,0.5-0.8,0.8
			c-0.2,0.3-0.4,0.7-0.5,1.1c-0.1,0.4-0.1,0.8-0.1,1.2v9.5H186.8z"/>
		<path class="st0" d="M206.7,36.6c-0.1,0-0.3,0-0.5-0.1s-0.4-0.1-0.7-0.2c-0.2-0.1-0.4-0.3-0.6-0.5c-0.2-0.2-0.4-0.5-0.5-0.8
			c-0.4,0.6-0.9,1-1.5,1.3c-0.6,0.3-1.5,0.4-2.5,0.4c-0.6,0-1.1-0.1-1.7-0.2c-0.6-0.1-1-0.3-1.5-0.7c-0.4-0.3-0.8-0.8-1-1.4
			c-0.3-0.6-0.4-1.4-0.4-2.3c0-1.7,0.5-2.9,1.4-3.8c1-0.9,2.3-1.3,4-1.3h2.4v-1.7c0-0.7-0.2-1.2-0.6-1.6c-0.4-0.4-1-0.6-1.7-0.6
			c-0.9,0-1.7,0.1-2.3,0.2c-0.7,0.1-1.4,0.3-2.2,0.5v-2.2c0.6-0.2,1.2-0.3,1.9-0.4c0.7-0.1,1.5-0.2,2.2-0.2c1,0,1.8,0.1,2.5,0.3
			c0.7,0.2,1.2,0.5,1.6,0.9c0.4,0.4,0.7,0.9,0.9,1.6c0.2,0.6,0.3,1.4,0.3,2.3v7.4c0,0.3,0.1,0.5,0.3,0.7c0.2,0.2,0.6,0.3,1,0.3v2.2
			H206.7z M201,34.6c0.5,0,1-0.1,1.3-0.2c0.3-0.2,0.6-0.4,0.8-0.6c0.2-0.2,0.3-0.5,0.4-0.7c0.1-0.2,0.1-0.4,0.1-0.6v-3.2h-2.6
			c-0.3,0-0.7,0.1-1,0.2c-0.3,0.1-0.6,0.3-0.8,0.5c-0.2,0.2-0.4,0.5-0.6,0.9c-0.2,0.4-0.2,0.8-0.2,1.3c0,1,0.2,1.6,0.6,2
			C199.5,34.4,200.1,34.6,201,34.6z"/>
		<path class="st0" d="M213.7,23.5v9.4c0,0.1,0,0.3,0.1,0.5c0,0.2,0.1,0.4,0.2,0.6c0.1,0.2,0.3,0.3,0.5,0.4c0.2,0.1,0.5,0.2,0.8,0.2
			c0.5,0,0.9,0,1.2-0.1c0.3-0.1,0.6-0.1,0.8-0.2v2.2c-0.2,0.1-0.6,0.1-1.1,0.2c-0.5,0.1-1,0.1-1.6,0.1c-0.6,0-1.2-0.1-1.6-0.3
			c-0.5-0.2-0.8-0.5-1.1-0.9c-0.3-0.4-0.5-0.8-0.6-1.3c-0.1-0.5-0.2-1-0.2-1.6v-9.2h-2v-2.3h2v-3.7h2.6v3.7h3.6v2.3H213.7z"/>
		<path class="st0" d="M222.2,29.8c0,1,0.1,1.8,0.2,2.4c0.1,0.6,0.3,1.1,0.5,1.5c0.2,0.3,0.5,0.6,0.8,0.7c0.3,0.1,0.7,0.2,1,0.2
			c0.9,0,1.6-0.1,2.4-0.2c0.7-0.1,1.3-0.2,1.8-0.3v2.2c-0.5,0.1-1.1,0.3-1.9,0.4c-0.7,0.1-1.4,0.1-2,0.1c-0.9,0-1.7-0.1-2.4-0.3
			c-0.7-0.2-1.3-0.6-1.7-1.1c-0.5-0.6-0.8-1.3-1.1-2.4c-0.2-1-0.4-2.4-0.4-4.1c0-1.4,0.1-2.6,0.4-3.6c0.2-1,0.6-1.8,1.1-2.5
			c0.5-0.6,1.1-1.1,1.8-1.4c0.7-0.3,1.5-0.4,2.4-0.4c1.8,0,3,0.6,3.8,1.7c0.8,1.2,1.2,2.8,1.2,4.8v2.3H222.2z M225.1,23.2
			c-0.5,0-0.9,0.1-1.3,0.2c-0.3,0.1-0.6,0.4-0.9,0.7c-0.2,0.3-0.4,0.8-0.5,1.4c-0.1,0.6-0.2,1.3-0.2,2.2h5.4v-0.8
			c0-1.2-0.2-2.1-0.5-2.7C226.7,23.5,226.1,23.2,225.1,23.2z"/>
		<path class="st0" d="M245,26.6c0,1.7-0.5,3-1.5,3.9c-1,0.9-2.6,1.3-4.7,1.3c-0.8,0-1.4-0.1-2-0.2c-0.2,0.5-0.3,0.9-0.3,1.3
			c0,0.3,0.1,0.6,0.2,0.9c0.7-0.1,1.4-0.1,2.1-0.2c0.7-0.1,1.3-0.1,1.8-0.1c0.7,0,1.4,0.1,2,0.2c0.6,0.1,1.2,0.4,1.6,0.7
			c0.5,0.3,0.8,0.8,1.1,1.4c0.3,0.6,0.4,1.4,0.4,2.3c0,0.8-0.1,1.4-0.4,2c-0.3,0.5-0.7,1-1.2,1.3c-0.5,0.3-1.1,0.6-1.8,0.8
			c-0.7,0.2-1.5,0.2-2.3,0.2c-0.4,0-0.9,0-1.4-0.1c-0.6,0-1.1-0.1-1.7-0.1c-0.6-0.1-1.1-0.1-1.6-0.2c-0.5-0.1-0.9-0.1-1.2-0.2v-2.2
			c0.4,0.1,0.8,0.1,1.3,0.2c0.5,0.1,1,0.1,1.6,0.2c0.5,0,1.1,0.1,1.6,0.1c0.6,0,1.1,0,1.6,0c1,0,1.8-0.2,2.2-0.6
			c0.4-0.4,0.7-0.9,0.7-1.5c0-0.8-0.2-1.4-0.5-1.7c-0.4-0.4-1-0.6-2-0.6c-0.3,0-0.7,0-1.1,0c-0.5,0-0.9,0-1.4,0.1
			c-0.5,0-1,0.1-1.4,0.1c-0.5,0-0.8,0.1-1.2,0.1c-0.3-0.3-0.7-0.8-0.9-1.3c-0.3-0.6-0.4-1.1-0.4-1.6c0-0.6,0.1-1.1,0.2-1.5
			c0.1-0.4,0.3-0.8,0.6-1c-0.6-0.5-1-1-1.2-1.8c-0.2-0.7-0.4-1.6-0.4-2.6c0-1.1,0.2-2,0.5-2.7c0.3-0.7,0.8-1.2,1.4-1.6
			c0.6-0.4,1.3-0.7,2-0.8c0.8-0.1,1.6-0.2,2.4-0.2c0.9,0,1.7,0.1,2.4,0.4l4.5-0.2v2.3l-2.1-0.1C244.8,24.3,245,25.3,245,26.6z
			 M242.4,26.3c0-0.4,0-0.8-0.1-1.2c-0.1-0.4-0.3-0.7-0.5-1c-0.2-0.3-0.6-0.5-1-0.7s-0.9-0.3-1.5-0.3c-1.3,0-2.2,0.3-2.7,0.8
			c-0.5,0.5-0.7,1.4-0.7,2.6c0,0.4,0,0.8,0.1,1.2c0.1,0.4,0.3,0.7,0.5,1c0.2,0.3,0.5,0.5,0.9,0.6c0.4,0.2,0.9,0.2,1.5,0.2
			c0.5,0,1,0,1.4-0.1c0.4-0.1,0.8-0.2,1.1-0.5c0.3-0.2,0.6-0.6,0.8-1C242.3,27.6,242.4,27,242.4,26.3z"/>
		<path class="st0" d="M256.3,37.9c-0.2,0.6-0.3,1.1-0.5,1.6c-0.2,0.5-0.4,0.9-0.7,1.3c-0.3,0.3-0.6,0.6-1,0.8
			c-0.4,0.2-0.9,0.3-1.6,0.3c-0.3,0-0.7,0-1-0.1c-0.3,0-0.6-0.1-0.8-0.1v-2.2c0.2,0,0.5,0.1,0.7,0.1c0.3,0,0.6,0,0.9,0
			c0.6,0,1-0.5,1.2-1.4l0.5-1.7h-0.6l-4.8-15.4h2.8l3.6,12.7l3-12.7h2.7L256.3,37.9z"/>
		<path class="st0" d="M273.9,17.3v7.4h6.6v2.2h-6.6v9.7h-2.7V15h10.1v2.2H273.9z"/>
		<path class="st0" d="M295.4,28.6c0,1.6-0.1,3-0.4,4c-0.2,1.1-0.6,1.9-1.1,2.5c-0.5,0.6-1.1,1.1-1.8,1.3c-0.7,0.2-1.6,0.4-2.5,0.4
			c-0.9,0-1.8-0.1-2.5-0.4c-0.7-0.2-1.3-0.7-1.8-1.3c-0.5-0.6-0.9-1.5-1.1-2.5c-0.3-1.1-0.4-2.4-0.4-4c0-2.6,0.5-4.5,1.4-5.8
			c0.9-1.2,2.4-1.8,4.4-1.8s3.5,0.6,4.4,1.8C294.9,24,295.4,25.9,295.4,28.6z M292.7,29c0-1.1-0.1-2-0.2-2.8
			c-0.1-0.8-0.3-1.4-0.5-1.8c-0.2-0.5-0.6-0.8-1-1c-0.4-0.2-0.9-0.3-1.5-0.3s-1.1,0.1-1.5,0.3c-0.4,0.2-0.7,0.5-1,1
			c-0.2,0.5-0.4,1.1-0.5,1.8c-0.1,0.8-0.2,1.7-0.2,2.8c0,2,0.2,3.4,0.7,4.3c0.5,0.9,1.3,1.3,2.5,1.3c1.2,0,2-0.4,2.5-1.3
			C292.5,32.5,292.7,31,292.7,29z"/>
		<path class="st0" d="M299,36.6V21.2h2.2l0.2,1.6c0.3-0.5,0.8-1,1.3-1.3c0.5-0.3,1.1-0.5,1.9-0.5c0.4,0,0.7,0,1,0
			c0.3,0,0.5,0.1,0.7,0.1v2.7c-0.3-0.1-0.6-0.1-0.9-0.2c-0.3-0.1-0.7-0.1-0.9-0.1c-0.5,0-0.9,0.1-1.3,0.3c-0.3,0.2-0.6,0.5-0.8,0.8
			c-0.2,0.3-0.4,0.7-0.5,1.1c-0.1,0.4-0.1,0.8-0.1,1.2v9.5H299z"/>
		<path class="st0" d="M317.1,36.6l-0.2-1.3c-0.4,0.5-0.9,0.8-1.5,1.1c-0.6,0.3-1.3,0.4-2,0.4c-0.9,0-1.6-0.1-2.1-0.3
			c-0.6-0.2-1-0.6-1.4-1c-0.3-0.5-0.6-1-0.7-1.7c-0.1-0.7-0.2-1.5-0.2-2.5v-10h2.6v10.3c0,0.5,0,0.9,0.1,1.3c0.1,0.4,0.2,0.7,0.3,1
			c0.2,0.3,0.4,0.5,0.7,0.6c0.3,0.1,0.7,0.2,1.1,0.2c0.4,0,0.8-0.1,1.2-0.2c0.3-0.2,0.6-0.4,0.9-0.6c0.2-0.2,0.4-0.5,0.6-0.8
			c0.1-0.3,0.2-0.6,0.2-0.8V21.2h2.6v15.4H317.1z"/>
		<path class="st0" d="M323.3,36.6V21.2h2.2l0.2,1.4c0.9-1,2.1-1.6,3.5-1.6c1,0,1.7,0.2,2.3,0.5c0.6,0.4,1,0.8,1.4,1.4
			c1-1.3,2.3-1.9,3.9-1.9c1.6,0,2.7,0.4,3.3,1.3c0.6,0.9,1,2.3,1,4.1v10.2h-2.6V26.1c0-1-0.1-1.7-0.4-2.2c-0.3-0.5-0.9-0.7-1.7-0.7
			c-0.4,0-0.8,0.1-1.1,0.2c-0.3,0.2-0.6,0.4-0.9,0.6c-0.2,0.3-0.4,0.5-0.6,0.8c-0.1,0.3-0.2,0.6-0.2,0.9v10.8h-2.6V26.1
			c0-1-0.1-1.7-0.4-2.2c-0.3-0.5-0.9-0.7-1.7-0.7c-0.4,0-0.8,0.1-1.1,0.2c-0.3,0.2-0.6,0.4-0.9,0.6c-0.2,0.3-0.4,0.5-0.6,0.8
			c-0.1,0.3-0.2,0.6-0.2,0.9v10.8H323.3z"/>
	</g>
	<g>
		<path class="st1" d="M73.9,57.8l-0.6-2.7h-3l-0.6,2.7h-1.4L71,47.1h1.8l2.5,10.7H73.9z M71.9,48.1L70.6,54h2.5L71.9,48.1z"/>
		<path class="st1" d="M85.4,57.6c-0.8,0.2-1.6,0.3-2.4,0.3c-2.3,0-3.2-1.1-3.2-5.6c0-4.5,1.1-5.3,3.5-5.3c0.5,0,1.3,0.1,1.7,0.2
			v1.1c-0.6-0.1-1.3-0.2-2-0.2c-1.3,0-1.9,0.6-1.9,4.3c0,3.8,0.5,4.4,1.7,4.4c0.4,0,0.8,0,1.2-0.1v-3.4h-1.4v-1.1h2.6V57.6z"/>
		<path class="st1" d="M89.4,57.7c-0.2,0-0.5,0.1-0.9,0.1c-0.6,0-1.3-0.4-1.3-1.8v-9h1.3V56c0,0.5,0.1,0.7,0.5,0.7
			c0.2,0,0.3-0.1,0.4-0.1V57.7z"/>
		<path class="st1" d="M93.4,57.9c-1.9,0-2.9-0.9-2.9-4.1c0-2.6,0.9-3.8,2.9-3.8c2,0,2.9,1.2,2.9,3.8C96.3,57,95.3,57.9,93.4,57.9z
			 M93.4,51.1c-1.2,0-1.6,0.8-1.6,2.9c0,2,0.4,2.8,1.6,2.8c1.1,0,1.6-0.8,1.6-2.8C95,51.9,94.6,51.1,93.4,51.1z"/>
		<path class="st1" d="M100.2,57.9c-1.1,0-1.6-0.1-2.1-0.2V47.1h1.3v3.6c0.5-0.4,1-0.7,1.7-0.7c1.8,0,2.4,1.2,2.4,3.4
			C103.4,56.8,102.6,57.9,100.2,57.9z M99.3,52.5v4.3c0.2,0,0.5,0.1,1,0.1c1.4,0,1.8-1.1,1.8-3.2c0-1.9-0.4-2.5-1.3-2.5
			C99.9,51.2,99.3,51.9,99.3,52.5z"/>
		<path class="st1" d="M110.1,57.8c-0.3,0-0.9-0.1-1.1-0.7c-0.4,0.5-1,0.9-2,0.9c-1.1,0-2.3-0.4-2.3-2.3c0-1.6,1-2.5,2.7-2.5h1.2
			v-0.8c0-0.6-0.4-1.1-1.1-1.1c-0.9,0-1.4,0.1-2.2,0.3v-1.1c0.6-0.2,1.3-0.3,2.1-0.3c2,0,2.6,0.8,2.6,2.5v3.7c0,0.3,0.2,0.5,0.7,0.5
			v1.1H110.1z M108.6,55.7v-1.6h-1.3c-0.7,0-1.3,0.4-1.3,1.4c0,0.9,0.4,1.2,1.2,1.2C108.3,56.8,108.6,56,108.6,55.7z"/>
		<path class="st1" d="M114.2,57.7c-0.2,0-0.5,0.1-0.9,0.1c-0.6,0-1.3-0.4-1.3-1.8v-9h1.3V56c0,0.5,0.1,0.7,0.5,0.7
			c0.2,0,0.3-0.1,0.4-0.1V57.7z"/>
		<path class="st1" d="M123.8,57.6c-0.3,0.1-1.2,0.3-1.7,0.3c-2.2,0-3.1-1.1-3.1-5.6c0-4.5,1-5.3,3.3-5.3c0.5,0,1.1,0.1,1.5,0.2v1.1
			c-0.5-0.1-1.2-0.2-1.8-0.2c-1.1,0-1.6,0.5-1.6,4.2c0,3.8,0.5,4.4,1.6,4.4c0.6,0,1.4-0.1,1.8-0.2V57.6z"/>
		<path class="st1" d="M127.9,57.9c-1.9,0-2.9-0.9-2.9-4.1c0-2.6,0.9-3.8,2.9-3.8c2,0,2.9,1.2,2.9,3.8
			C130.7,57,129.7,57.9,127.9,57.9z M127.9,51.1c-1.2,0-1.6,0.8-1.6,2.9c0,2,0.4,2.8,1.6,2.8c1.1,0,1.6-0.8,1.6-2.8
			C129.4,51.9,129.1,51.1,127.9,51.1z"/>
		<path class="st1" d="M132.4,57.8v-7.6h1.1l0.1,0.7c0.5-0.5,1-0.8,1.7-0.8c0.9,0,1.5,0.4,1.8,1c0.5-0.6,1.1-1,1.9-1
			c1.6,0,2.1,0.8,2.1,2.7v5h-1.3v-5.2c0-1-0.2-1.4-1.1-1.4c-0.8,0-1.4,0.7-1.4,1.3v5.3h-1.3v-5.2c0-1-0.2-1.4-1.1-1.4
			c-0.8,0-1.4,0.7-1.4,1.3v5.3H132.4z"/>
		<path class="st1" d="M143.1,57.8v-7.6h1.1l0.1,0.7c0.5-0.5,1-0.8,1.7-0.8c0.9,0,1.5,0.4,1.8,1c0.5-0.6,1.1-1,1.9-1
			c1.6,0,2.1,0.8,2.1,2.7v5h-1.3v-5.2c0-1-0.2-1.4-1.1-1.4c-0.8,0-1.4,0.7-1.4,1.3v5.3h-1.3v-5.2c0-1-0.2-1.4-1.1-1.4
			c-0.8,0-1.4,0.7-1.4,1.3v5.3H143.1z"/>
		<path class="st1" d="M157.7,57.8l-0.1-0.6c-0.4,0.5-1,0.7-1.8,0.7c-1.7,0-2.2-0.9-2.2-2.8v-5h1.3v5.1c0,1,0.2,1.5,1.1,1.5
			c0.8,0,1.4-0.7,1.4-1.2v-5.4h1.3v7.6H157.7z"/>
		<path class="st1" d="M160.7,57.8v-7.6h1.1l0.1,0.7c0.5-0.5,1.1-0.8,1.9-0.8c1.7,0,2.3,0.8,2.3,2.7v5h-1.3v-5.2
			c0-1-0.2-1.4-1.2-1.4c-0.9,0-1.5,0.7-1.5,1.3v5.3H160.7z"/>
		<path class="st1" d="M167.8,48.5v-1.4h1.4v1.4H167.8z M167.9,57.8v-7.6h1.3v7.6H167.9z"/>
		<path class="st1" d="M172.8,51.3V56c0,0.3,0.1,0.8,0.8,0.8c0.5,0,0.8-0.1,1-0.2v1.1c-0.2,0.1-0.8,0.2-1.3,0.2
			c-1.2,0-1.8-0.9-1.8-2v-4.6h-1v-1.1h1v-1.8h1.3v1.8h1.8v1.1H172.8z"/>
		<path class="st1" d="M179.3,58.5c-0.3,1.2-0.7,2-1.9,2c-0.3,0-0.7-0.1-0.9-0.1v-1.1c0.2,0,0.5,0.1,0.8,0.1c0.3,0,0.5-0.2,0.6-0.7
			l0.2-0.8h-0.3l-2.4-7.6h1.4l1.8,6.3l1.5-6.3h1.3L179.3,58.5z"/>
	</g>
	<g>
		<ellipse transform="matrix(0.5078 -0.8615 0.8615 0.5078 -30.2361 26.5702)" class="st2" cx="8.1" cy="39.7" rx="8" ry="8"/>
		<ellipse transform="matrix(0.5078 -0.8615 0.8615 0.5078 -25.3701 50.009)" class="st3" cx="31.1" cy="47.2" rx="8" ry="8"/>
		<ellipse transform="matrix(0.5078 -0.8615 0.8615 0.5078 -9.5047 14.7259)" class="st4" cx="8.1" cy="15.7" rx="8" ry="8"/>
		<ellipse transform="matrix(0.5078 -0.8615 0.8615 0.5078 8.2227 30.8167)" class="st5" cx="31.1" cy="8.2" rx="8" ry="8"/>
		<ellipse transform="matrix(0.5078 -0.8615 0.8615 0.5078 -1.6153 52.5923)" class="st6" cx="45.2" cy="27.7" rx="8" ry="8"/>
	</g>
</g>
</svg>
